<svg width="64" height="64" viewBox="0 0 64 64" fill="none" xmlns="http://www.w3.org/2000/svg">
<path d="M50.6667 42.6667L56 32L45.3333 29.6293M45.3333 29.6293L32 26.6667M45.3333 29.6293L48 16H37.3333M32 26.6667V40M32 26.6667L18.6667 29.6293M18.6667 29.6293L8 32L13.3333 42.6667M18.6667 29.6293L16 16H26.6667M26.6667 16V8H37.3333V16M26.6667 16H37.3333M8 53.3333L11.32 52.0053C12.3522 51.5926 13.4693 51.4371 14.575 51.5523C15.6807 51.6675 16.7417 52.05 17.6667 52.6667C19.0502 53.5892 20.722 53.9773 22.3705 53.7584C24.019 53.5396 25.5317 52.7289 26.6267 51.4773L26.72 51.3707C27.3783 50.6177 28.19 50.0143 29.1006 49.6008C30.0113 49.1873 30.9999 48.9734 32 48.9734C33.0001 48.9734 33.9887 49.1873 34.8994 49.6008C35.81 50.0143 36.6217 50.6177 37.28 51.3707L37.376 51.4773C38.471 52.7289 39.9837 53.5396 41.6321 53.7584C43.2806 53.9773 44.9524 53.5892 46.336 52.6667C47.2609 52.05 48.322 51.6675 49.4277 51.5523C50.5334 51.4371 51.6505 51.5926 52.6827 52.0053L56 53.3333" stroke="white" stroke-width="5.33333" stroke-linecap="round" stroke-linejoin="round"/>
</svg>
