<svg width="64" height="64" viewBox="0 0 64 64" fill="none" xmlns="http://www.w3.org/2000/svg">
<path d="M13.3334 56.0002L17.4374 51.8988H46.5654L50.6667 56.0002H13.3334ZM19.488 49.8455L21.5387 47.7948H20.872C18.7387 47.7948 16.9494 47.0437 15.504 45.5415C14.0587 44.0393 13.3352 42.2259 13.3334 40.1015V21.8455C13.3334 16.7966 15.1316 12.7824 18.728 9.80283C22.3245 6.82327 26.7485 5.3335 32 5.3335C37.2516 5.3335 41.6756 6.82327 45.272 9.80283C48.8685 12.7824 50.6667 16.7966 50.6667 21.8455V40.1042C50.6667 42.2286 49.944 44.0419 48.4987 45.5442C47.0534 47.0464 45.2632 47.7966 43.128 47.7948H42.4614L44.5147 49.8482L19.488 49.8455ZM20.872 45.1282H43.128C44.4809 45.1282 45.6311 44.6393 46.5787 43.6615C47.5263 42.6837 48 41.4979 48 40.1042V29.7468H16V40.1068C16 41.5024 16.4738 42.6891 17.4214 43.6668C18.3689 44.6446 19.5192 45.1299 20.872 45.1282ZM32.0054 40.9255C32.976 40.9255 33.7992 40.5859 34.4747 39.9068C35.1503 39.2277 35.488 38.4028 35.488 37.4322C35.488 36.4615 35.1485 35.6384 34.4694 34.9628C33.7903 34.2873 32.9654 33.9495 31.9947 33.9495C31.024 33.9495 30.2009 34.2899 29.5254 34.9708C28.8498 35.6517 28.512 36.4766 28.512 37.4455C28.512 38.4144 28.8516 39.2366 29.5307 39.9122C30.2098 40.5877 31.0347 40.9255 32.0054 40.9255ZM16 27.0775H48V21.8455C48 20.7557 47.8916 19.7264 47.6747 18.7575C47.4578 17.7886 47.1378 16.8695 46.7147 16.0002H17.2854C16.8605 16.8695 16.5396 17.7886 16.3227 18.7575C16.1058 19.7264 15.9983 20.7557 16 21.8455V27.0775ZM19.2667 13.3335H44.7334C43.3218 11.6251 41.5129 10.3095 39.3067 9.38683C37.0987 8.46238 34.6632 8.00016 32 8.00016C29.3369 8.00016 26.9014 8.46238 24.6934 9.38683C22.4889 10.3077 20.6783 11.6233 19.2667 13.3335Z" fill="white"/>
</svg>
