<svg width="64" height="64" viewBox="0 0 64 64" fill="none" xmlns="http://www.w3.org/2000/svg">
<path d="M20.0159 40.7064C20.086 40.9596 20.2052 41.1965 20.3668 41.4036C20.5284 41.6107 20.7292 41.784 20.9578 41.9135C21.1863 42.043 21.4381 42.1262 21.6989 42.1584C21.9596 42.1906 22.2241 42.1711 22.4773 42.1011C22.7305 42.031 22.9674 41.9118 23.1745 41.7502C23.3816 41.5886 23.5549 41.3878 23.6844 41.1593C23.8139 40.9307 23.8971 40.6789 23.9293 40.4182C23.9615 40.1574 23.942 39.8929 23.8719 39.6397L20.0159 40.7064ZM8.53328 12.5997C8.27909 12.5255 8.0127 12.5025 7.74954 12.532C7.48639 12.5615 7.23172 12.643 7.00031 12.7717C6.76889 12.9005 6.56535 13.0739 6.40148 13.2819C6.23761 13.4899 6.11668 13.7284 6.04571 13.9835C5.97474 14.2386 5.95513 14.5053 5.98803 14.768C6.02093 15.0308 6.10569 15.2844 6.23737 15.5141C6.36906 15.7439 6.54506 15.9452 6.75516 16.1063C6.96525 16.2675 7.20527 16.3854 7.46128 16.4531L8.53328 12.5997ZM53.8346 41.9331C54.095 41.8729 54.3407 41.7611 54.5572 41.6043C54.7737 41.4475 54.9565 41.2489 55.095 41.0202C55.2334 40.7916 55.3246 40.5375 55.3631 40.273C55.4017 40.0085 55.3868 39.739 55.3195 39.4803C55.2521 39.2216 55.1335 38.9791 54.9708 38.7671C54.8081 38.555 54.6045 38.3777 54.3722 38.2456C54.1398 38.1136 53.8833 38.0294 53.6178 37.9982C53.3523 37.967 53.0833 37.9893 52.8266 38.0637L53.8346 41.9331ZM27.1919 46.8237C28.0186 49.8104 26.2053 52.9651 22.9946 53.7997L23.9999 57.6691C29.2719 56.3011 32.4933 50.9971 31.0479 45.7571L27.1919 46.8237ZM22.9946 53.7997C19.7626 54.6397 16.5199 52.7624 15.6879 49.7491L11.8319 50.8158C13.2719 56.0291 18.7493 59.0344 23.9999 57.6691L22.9946 53.7997ZM15.6879 49.7491C14.8613 46.7624 16.6746 43.6078 19.8853 42.7731L18.8799 38.9064C13.6079 40.2744 10.3839 45.5757 11.8319 50.8158L15.6879 49.7491ZM19.8853 42.7731C23.1173 41.9331 26.3599 43.8104 27.1919 46.8237L31.0479 45.7571C29.6079 40.5438 24.1306 37.5384 18.8799 38.9037L19.8853 42.7731ZM23.8719 39.6397L18.1333 18.8664L14.2773 19.9331L20.0159 40.7064L23.8719 39.6397ZM13.0773 13.8584L8.53328 12.5997L7.46128 16.4531L12.0079 17.7144L13.0773 13.8584ZM18.1333 18.8664C17.7942 17.6664 17.1504 16.5745 16.2644 15.6969C15.3785 14.8194 14.2805 14.186 13.0773 13.8584L12.0133 17.7144C13.1466 18.0291 13.9893 18.8904 14.2773 19.9331L18.1333 18.8664ZM29.6266 48.2264L53.8346 41.9331L52.8293 38.0637L28.6186 44.3571L29.6266 48.2264Z" fill="white"/>
<path d="M51.1066 16.6292C49.8132 11.9465 49.1652 9.60517 47.2666 8.54117C45.3626 7.4745 42.9492 8.10383 38.1226 9.35983L33.0026 10.6878C28.1759 11.9412 25.7626 12.5705 24.6666 14.4158C23.5679 16.2585 24.2132 18.5998 25.5066 23.2798L26.8799 28.2478C28.1732 32.9278 28.8186 35.2692 30.7199 36.3332C32.6212 37.3998 35.0346 36.7705 39.8612 35.5172L44.9812 34.1838C49.8079 32.9305 52.2212 32.3038 53.3199 30.4612C53.9226 29.4478 53.9999 28.2852 53.7306 26.6665" stroke="white" stroke-width="4" stroke-linecap="round"/>
</svg>
