<svg width="64" height="64" viewBox="0 0 64 64" fill="none" xmlns="http://www.w3.org/2000/svg">
<path d="M24 12H16V4H12V12H4V16H12V24H16V16H24V12Z" fill="white"/>
<path d="M59.838 33.212L53.838 19.212C53.6838 18.8523 53.4275 18.5458 53.1008 18.3303C52.7741 18.1149 52.3913 18 52 18H46V14C46 13.4696 45.7893 12.9609 45.4142 12.5858C45.0391 12.2107 44.5304 12 44 12H30V16H42V41.112C41.0892 41.6419 40.2921 42.3465 39.6544 43.1853C39.0167 44.0241 38.551 44.9807 38.284 46H25.716C25.2809 44.2835 24.2859 42.7611 22.8884 41.6737C21.491 40.5862 19.7708 39.9957 18 39.9957C16.2292 39.9957 14.509 40.5862 13.1116 41.6737C11.7141 42.7611 10.7191 44.2835 10.284 46H8V28H4V48C4 48.5304 4.21071 49.0391 4.58579 49.4142C4.96086 49.7893 5.46957 50 6 50H10.284C10.7191 51.7165 11.7141 53.2389 13.1116 54.3263C14.509 55.4138 16.2292 56.0043 18 56.0043C19.7708 56.0043 21.491 55.4138 22.8884 54.3263C24.2859 53.2389 25.2809 51.7165 25.716 50H38.284C38.7191 51.7165 39.7141 53.2389 41.1116 54.3263C42.509 55.4138 44.2292 56.0043 46 56.0043C47.7708 56.0043 49.491 55.4138 50.8884 54.3263C52.2859 53.2389 53.2809 51.7165 53.716 50H58C58.5304 50 59.0391 49.7893 59.4142 49.4142C59.7893 49.0391 60 48.5304 60 48V34C59.9999 33.7291 59.9448 33.461 59.838 33.212ZM18 52C17.2089 52 16.4355 51.7654 15.7777 51.3259C15.1199 50.8864 14.6072 50.2616 14.3045 49.5307C14.0017 48.7998 13.9225 47.9956 14.0769 47.2196C14.2312 46.4437 14.6122 45.731 15.1716 45.1716C15.731 44.6122 16.4437 44.2312 17.2196 44.0769C17.9956 43.9225 18.7998 44.0017 19.5307 44.3045C20.2616 44.6072 20.8864 45.1199 21.3259 45.7777C21.7654 46.4355 22 47.2089 22 48C21.9984 49.0604 21.5765 50.0769 20.8267 50.8267C20.0769 51.5765 19.0604 51.9984 18 52ZM46 22H50.68L54.968 32H46V22ZM46 52C45.2089 52 44.4355 51.7654 43.7777 51.3259C43.1199 50.8864 42.6072 50.2616 42.3045 49.5307C42.0017 48.7998 41.9225 47.9956 42.0769 47.2196C42.2312 46.4437 42.6122 45.731 43.1716 45.1716C43.731 44.6122 44.4437 44.2312 45.2196 44.0769C45.9956 43.9225 46.7998 44.0017 47.5307 44.3045C48.2616 44.6072 48.8864 45.1199 49.3259 45.7777C49.7654 46.4355 50 47.2089 50 48C50 49.0609 49.5786 50.0783 48.8284 50.8284C48.0783 51.5786 47.0609 52 46 52ZM56 46H53.716C53.2754 44.2869 52.2789 42.7684 50.8825 41.6825C49.4861 40.5967 47.7689 40.0049 46 40V36H56V46Z" fill="white"/>
</svg>
