<svg width="64" height="64" viewBox="0 0 64 64" fill="none" xmlns="http://www.w3.org/2000/svg">
<path fill-rule="evenodd" clip-rule="evenodd" d="M29.3334 10.6668C28.2828 10.6668 27.2425 10.8738 26.2719 11.2758C25.3013 11.6778 24.4194 12.2671 23.6765 13.01C22.9337 13.7528 22.3444 14.6348 21.9423 15.6054C21.5403 16.576 21.3334 17.6163 21.3334 18.6668C21.3334 19.7174 21.5403 20.7577 21.9423 21.7283C22.3444 22.6989 22.9337 23.5808 23.6765 24.3237C24.4194 25.0666 25.3013 25.6558 26.2719 26.0579C27.2425 26.4599 28.2828 26.6668 29.3334 26.6668C31.4551 26.6668 33.4899 25.824 34.9902 24.3237C36.4905 22.8234 37.3334 20.7886 37.3334 18.6668C37.3334 16.5451 36.4905 14.5103 34.9902 13.01C33.4899 11.5097 31.4551 10.6668 29.3334 10.6668ZM16 18.6668C16 15.1306 17.4048 11.7392 19.9053 9.23874C22.4058 6.73825 25.7972 5.3335 29.3334 5.3335C32.8696 5.3335 36.261 6.73825 38.7615 9.23874C41.262 11.7392 42.6667 15.1306 42.6667 18.6668C42.6667 22.2031 41.262 25.5944 38.7615 28.0949C36.261 30.5954 32.8696 32.0002 29.3334 32.0002C25.7972 32.0002 22.4058 30.5954 19.9053 28.0949C17.4048 25.5944 16 22.2031 16 18.6668ZM11.768 46.9362C10.9067 48.0295 10.6667 48.8562 10.6667 49.3335C10.6667 49.6588 10.7654 50.0028 11.3467 50.4695C12.0107 51.0028 13.1654 51.5548 14.9307 52.0215C18.4454 52.9548 23.496 53.3335 29.3334 53.3335C29.9254 53.3335 30.5103 53.3291 31.088 53.3202C31.7953 53.3106 32.4774 53.5824 32.9842 54.0758C33.4911 54.5691 33.7812 55.2436 33.7907 55.9508C33.8003 56.6581 33.5285 57.3401 33.0351 57.847C32.5418 58.3538 31.8673 58.644 31.16 58.6535C30.5556 58.6624 29.9467 58.6668 29.3334 58.6668C23.3894 58.6668 17.7734 58.2935 13.5654 57.1788C11.472 56.6242 9.50137 55.8295 8.00804 54.6295C6.42671 53.3602 5.33337 51.5868 5.33337 49.3335C5.33337 47.2348 6.28804 45.2722 7.58404 43.6295C8.90137 41.9628 10.7227 40.4295 12.8587 39.1228C17.1334 36.5202 22.9467 34.6668 29.3334 34.6668C30.5263 34.6668 31.696 34.7291 32.8427 34.8535C33.5461 34.9281 34.191 35.2791 34.6356 35.8292C35.0801 36.3793 35.288 37.0835 35.2134 37.7868C35.1388 38.4902 34.7878 39.1351 34.2377 39.5797C33.6876 40.0243 32.9834 40.2321 32.28 40.1575C31.3183 40.0526 30.336 40.0002 29.3334 40.0002C23.9387 40.0002 19.0854 41.5735 15.6374 43.6775C13.912 44.7282 12.608 45.8695 11.768 46.9362ZM48.8427 37.4695C48.2957 37.2873 47.7044 37.2873 47.1574 37.4695L39.1574 40.1362C38.6262 40.3131 38.1641 40.6527 37.8367 41.107C37.5093 41.5612 37.3332 42.1069 37.3334 42.6668V47.1228C37.333 49.9752 38.3845 52.7274 40.2866 54.8529C42.1887 56.9784 44.8078 58.3278 47.6427 58.6428C47.8827 58.6695 48.1209 58.6695 48.3574 58.6428C51.1922 58.3278 53.8114 56.9784 55.7135 54.8529C57.6156 52.7274 58.6671 49.9752 58.6667 47.1228V42.6668C58.6668 42.1069 58.4907 41.5612 58.1634 41.107C57.836 40.6527 57.3739 40.3131 56.8427 40.1362L48.8427 37.4695ZM42.6667 47.1228V44.5895L48 42.8108L53.3334 44.5895V47.1228C53.3334 50.2348 51.0534 52.8562 48 53.3122C46.5173 53.0911 45.1632 52.3448 44.1844 51.2094C43.2055 50.0739 42.6669 48.6247 42.6667 47.1255V47.1228Z" fill="white"/>
</svg>
