<svg width="20" height="20" viewBox="0 0 20 20" fill="none" xmlns="http://www.w3.org/2000/svg">
<path d="M9.99935 11.6667C11.8377 11.6667 13.3327 10.1717 13.3327 8.33333C13.3327 6.495 11.8377 5 9.99935 5C8.16102 5 6.66602 6.495 6.66602 8.33333C6.66602 10.1717 8.16102 11.6667 9.99935 11.6667ZM9.99935 6.66667C10.9185 6.66667 11.666 7.41417 11.666 8.33333C11.666 9.2525 10.9185 10 9.99935 10C9.08018 10 8.33268 9.2525 8.33268 8.33333C8.33268 7.41417 9.08018 6.66667 9.99935 6.66667Z" fill="#FFC527"/>
<path d="M9.51739 18.1784C9.65853 18.2789 9.82747 18.3329 10.0007 18.3329C10.174 18.3329 10.3429 18.2789 10.4841 18.1784C10.7374 17.9992 16.6916 13.7001 16.6674 8.33341C16.6674 4.65758 13.6766 1.66675 10.0007 1.66675C6.32489 1.66675 3.33406 4.65758 3.33406 8.32925C3.30989 13.7001 9.26406 17.9992 9.51739 18.1784ZM10.0007 3.33341C12.7582 3.33341 15.0007 5.57591 15.0007 8.33758C15.0182 12.0359 11.3441 15.3567 10.0007 16.4459C8.65822 15.3559 4.98322 12.0342 5.00072 8.33341C5.00072 5.57591 7.24322 3.33341 10.0007 3.33341Z" fill="#FFC527"/>
</svg>
