<svg width="24" height="24" viewBox="0 0 24 24" fill="none" xmlns="http://www.w3.org/2000/svg">
<path d="M10.783 18.8281C12.3738 18.8297 13.9294 18.3598 15.2534 17.478C16.5774 16.5961 17.6104 15.3417 18.222 13.8731C18.8333 12.4044 18.9945 10.7872 18.6852 9.22673C18.376 7.66623 17.6102 6.23275 16.485 5.10815C15.3605 3.9831 13.9277 3.21667 12.3677 2.90571C10.8077 2.59475 9.19052 2.75323 7.72057 3.36112C6.25062 3.969 4.99387 4.99901 4.10915 6.32096C3.22443 7.64291 2.75145 9.19746 2.75 10.7881C2.75 12.9191 3.596 14.9621 5.102 16.4691C6.60848 17.9763 8.65107 18.8246 10.782 18.8281M16.488 16.4911L21.25 21.2501" stroke="#070707" stroke-width="1.5" stroke-linecap="round" stroke-linejoin="round"/>
</svg>
