<svg width="30" height="30" viewBox="0 0 30 30" fill="none" xmlns="http://www.w3.org/2000/svg">
<path d="M9.00001 9C9.00001 8.80109 9.07903 8.61032 9.21968 8.46967C9.36033 8.32902 9.5511 8.25 9.75001 8.25H14.25C14.4489 8.25 14.6397 8.32902 14.7803 8.46967C14.921 8.61032 15 8.80109 15 9C15 9.19891 14.921 9.38968 14.7803 9.53033C14.6397 9.67098 14.4489 9.75 14.25 9.75H9.75001C9.5511 9.75 9.36033 9.67098 9.21968 9.53033C9.07903 9.38968 9.00001 9.19891 9.00001 9ZM9.75001 11.25C9.5511 11.25 9.36033 11.329 9.21968 11.4697C9.07903 11.6103 9.00001 11.8011 9.00001 12C9.00001 12.1989 9.07903 12.3897 9.21968 12.5303C9.36033 12.671 9.5511 12.75 9.75001 12.75H12.75C12.9489 12.75 13.1397 12.671 13.2803 12.5303C13.421 12.3897 13.5 12.1989 13.5 12C13.5 11.8011 13.421 11.6103 13.2803 11.4697C13.1397 11.329 12.9489 11.25 12.75 11.25H9.75001ZM12 1.5C10.4386 1.49947 8.90388 1.90519 7.54671 2.67727C6.18953 3.44936 5.05657 4.56125 4.25915 5.9037C3.46173 7.24615 3.02729 8.77297 2.99851 10.3341C2.96973 11.8953 3.34761 13.4371 4.09501 14.808L3.03001 18.543C2.99253 18.6742 2.99154 18.813 3.02712 18.9447C3.06271 19.0764 3.13353 19.1959 3.23196 19.2903C3.3304 19.3847 3.45272 19.4505 3.58576 19.4806C3.7188 19.5107 3.85753 19.5039 3.98701 19.461L7.49401 18.2925C8.6893 18.9832 10.0275 19.3897 11.405 19.4805C12.7825 19.5713 14.1624 19.344 15.4381 18.8162C16.7137 18.2884 17.8508 17.4742 18.7614 16.4366C19.672 15.399 20.3317 14.1658 20.6895 12.8325C21.0473 11.4992 21.0935 10.1014 20.8247 8.7473C20.5558 7.39323 19.9791 6.11914 19.1391 5.02362C18.2991 3.9281 17.2183 3.04051 15.9803 2.4295C14.7424 1.8185 13.3805 1.50046 12 1.5ZM4.50001 10.5C4.50026 8.83591 5.05393 7.21915 6.07388 5.90427C7.09382 4.58938 8.5221 3.65105 10.1339 3.23699C11.7456 2.82293 13.4493 2.95666 14.9767 3.61713C16.5041 4.2776 17.7685 5.4273 18.5708 6.88523C19.3731 8.34315 19.6677 10.0265 19.4083 11.6702C19.1489 13.314 18.3502 14.8248 17.1379 15.9648C15.9256 17.1048 14.3687 17.8092 12.7121 17.9672C11.0555 18.1252 9.39342 17.7278 7.98751 16.8375C7.89347 16.7779 7.78733 16.7399 7.6768 16.7265C7.56628 16.713 7.45413 16.7243 7.34851 16.7595L4.86151 17.589L5.62651 14.9175C5.65438 14.8191 5.66184 14.7161 5.64843 14.6147C5.63501 14.5133 5.60101 14.4158 5.54851 14.328C4.86159 13.1693 4.49941 11.847 4.50001 10.5ZM18.414 22.4205L14.811 20.6205C15.473 20.4355 16.1045 20.1915 16.7055 19.8885L18.75 20.9115L25.5 17.5365V16.5C25.5 16.1022 25.342 15.7206 25.0607 15.4393C24.7794 15.158 24.3978 15 24 15H21.489C21.719 14.519 21.911 14.019 22.065 13.5H24C24.7957 13.5 25.5587 13.8161 26.1213 14.3787C26.6839 14.9413 27 15.7044 27 16.5V24C27 24.7957 26.6839 25.5587 26.1213 26.1213C25.5587 26.6839 24.7957 27 24 27H13.5C12.7044 27 11.9413 26.6839 11.3787 26.1213C10.8161 25.5587 10.5 24.7957 10.5 24V20.895C10.99 20.965 11.49 21 12 21V24C12 24.3978 12.158 24.7794 12.4393 25.0607C12.7207 25.342 13.1022 25.5 13.5 25.5H24C24.3978 25.5 24.7794 25.342 25.0607 25.0607C25.342 24.7794 25.5 24.3978 25.5 24V19.2135L19.086 22.4205C18.9817 22.4728 18.8667 22.5 18.75 22.5C18.6334 22.5 18.5183 22.4728 18.414 22.4205Z" fill="white"/>
</svg>
