<svg width="64" height="64" viewBox="0 0 64 64" fill="none" xmlns="http://www.w3.org/2000/svg">
<g clip-path="url(#clip0_262_667)">
<path d="M63.5911 14.5067C63.4549 13.6415 63.0589 12.8382 62.4557 12.2032C61.8524 11.5682 61.0704 11.1316 60.2134 10.9512L49.7778 8.65785C48.6587 8.41379 47.5003 8.41287 46.3808 8.65517C45.2613 8.89746 44.2069 9.37732 43.2889 10.0623L12.4445 32.5334L3.80447 32.1779C3.10992 32.153 2.42519 32.3476 1.84754 32.7341C1.26989 33.1205 0.828693 33.6791 0.586606 34.3306C0.344518 34.9821 0.313854 35.6933 0.498968 36.3631C0.684082 37.033 1.07556 37.6276 1.61781 38.0623L10.5067 45.049C11.5734 46.3468 12.2845 46.0979 29.9378 36.4801L31.5911 53.2268C31.6186 53.6836 31.7753 54.1232 32.0427 54.4946C32.3102 54.8659 32.6777 55.1537 33.1022 55.3245C33.4074 55.4466 33.7337 55.507 34.0622 55.5023C34.7234 55.4821 35.3549 55.2232 35.84 54.7734L40.0889 50.8979C40.512 50.5059 40.7986 49.9888 40.9067 49.4223L44.8 28.2667C51.1467 24.7112 57.1556 21.369 61.44 18.9334C62.2065 18.5022 62.8232 17.8474 63.2076 17.0564C63.592 16.2653 63.7258 15.3758 63.5911 14.5067ZM59.68 15.8401C55.2356 18.3645 49.0134 21.9023 42.3289 25.5645L41.6 25.9734L37.4578 48.4979L34.8445 50.8801L32.8889 30.7912L30.5245 32.0001C17.7778 39.1112 13.5289 41.1734 12.0711 41.8134L4.42669 35.7512L13.4578 36.1423L45.4578 12.9245C45.9603 12.5475 46.5369 12.2812 47.1498 12.1433C47.7627 12.0054 48.3978 11.999 49.0134 12.1245L59.4134 14.3645C59.5736 14.3936 59.7204 14.4731 59.8323 14.5914C59.9443 14.7097 60.0155 14.8607 60.0356 15.0223C60.0722 15.1787 60.0573 15.3428 59.9933 15.4901C59.9292 15.6374 59.8194 15.7602 59.68 15.8401Z" fill="white"/>
<path d="M12.4444 22.2935L18.7733 24.0712L21.6889 21.9557L14.5778 19.8935L17.7778 17.9379L27.5022 17.6535L31.5911 14.6846L17.7778 15.1112C17.3423 15.0877 16.9095 15.1928 16.5333 15.4135L11.8578 18.1335C11.4712 18.3624 11.1611 18.7007 10.9665 19.1057C10.7719 19.5107 10.7016 19.9642 10.7643 20.409C10.827 20.8539 11.0201 21.2703 11.3191 21.6056C11.6181 21.941 12.0096 22.1803 12.4444 22.2935Z" fill="white"/>
</g>
<defs>
<clipPath id="clip0_262_667">
<rect width="64" height="64" fill="white"/>
</clipPath>
</defs>
</svg>
