<svg width="64" height="64" viewBox="0 0 64 64" fill="none" xmlns="http://www.w3.org/2000/svg">
<path d="M41.4491 20.4755C44.2377 20.4755 46.4914 17.5132 46.4914 13.8561C46.4914 10.1989 44.2331 7.24121 41.4491 7.24121C38.6697 7.24121 36.4114 10.2035 36.4114 13.8561C36.4114 17.5132 38.6697 20.4755 41.4491 20.4755ZM22.5508 20.4755C25.3302 20.4755 27.5885 17.5132 27.5885 13.8561C27.5885 10.1989 25.3257 7.24121 22.5508 7.24121C19.776 7.24121 17.5085 10.2035 17.5085 13.8561C17.5085 17.5132 19.7668 20.4755 22.5508 20.4755ZM55.0994 37.2755C58.0251 37.2755 60.3931 34.3132 60.3931 30.6561C60.3931 26.9989 58.0205 24.0412 55.0994 24.0412C52.1782 24.0412 49.8011 27.0035 49.8011 30.6561C49.8011 34.3132 52.1782 37.2755 55.0994 37.2755ZM8.90053 37.2755C11.8262 37.2755 14.1942 34.3132 14.1942 30.6561C14.1942 26.9989 11.8217 24.0458 8.90053 24.0458C5.97481 24.0458 3.60681 27.0081 3.60681 30.6606C3.60681 34.3178 5.97481 37.2755 8.90053 37.2755ZM45.2342 47.9361C45.2342 54.0252 38.0891 56.7589 32 56.7589C25.9108 56.7589 18.7657 54.0252 18.7657 47.9361C18.7657 41.8469 23.1771 32.4984 32 32.4984C40.8228 32.4984 45.2342 41.8469 45.2342 47.9361Z" stroke="white" stroke-width="4.57143" stroke-linecap="round" stroke-linejoin="round"/>
</svg>
