<svg width="64" height="64" viewBox="0 0 64 64" fill="none" xmlns="http://www.w3.org/2000/svg">
<path d="M52 27.6562V52C52 53.5913 51.3679 55.1174 50.2426 56.2426C49.1174 57.3679 47.5913 58 46 58H18C16.4087 58 14.8826 57.3679 13.7574 56.2426C12.6321 55.1174 12 53.5913 12 52V12C12 10.4087 12.6321 8.88258 13.7574 7.75736C14.8826 6.63214 16.4087 6 18 6H30.3438C31.4042 6.00016 32.4213 6.42145 33.1712 7.17125L50.8288 24.8288C51.5786 25.5787 51.9998 26.5958 52 27.6562Z" stroke="white" stroke-width="4" stroke-linejoin="round"/>
<path d="M32 7V22C32 23.0609 32.4214 24.0783 33.1716 24.8284C33.9217 25.5786 34.9391 26 36 26H51" stroke="white" stroke-width="4" stroke-linecap="round" stroke-linejoin="round"/>
</svg>
