<svg width="64" height="64" viewBox="0 0 64 64" fill="none" xmlns="http://www.w3.org/2000/svg">
<path d="M41.4054 42.6055H50.0454C53.4534 42.5495 58.6667 44.3442 58.6667 50.8188C58.6667 57.5388 52.2347 58.6668 50.0427 58.6668H21.1894C14.5014 58.6668 5.33337 57.3095 5.33337 45.7868V21.3388H58.6667V33.3842M46.672 37.2695L42.1334 41.0562C41.9119 41.2498 41.733 41.4872 41.6077 41.7534C41.4824 42.0196 41.4135 42.3088 41.4054 42.6028C41.3979 42.9166 41.4597 43.2283 41.5864 43.5154C41.7132 43.8026 41.9018 44.0583 42.1387 44.2642L46.672 47.9522M5.34937 21.3095L7.80537 15.1762C9.80004 10.4055 10.7974 8.0215 12.8187 6.68016C14.84 5.33883 17.432 5.3335 22.6134 5.3335H41.3334C46.5174 5.3335 49.1094 5.3335 51.1307 6.6775C53.152 8.01883 54.1467 10.4028 56.144 15.1708L58.6667 21.3202M31.9014 21.3362V5.33616M26.568 32.0028H37.2347" stroke="white" stroke-width="4" stroke-linecap="round" stroke-linejoin="round"/>
</svg>
