<svg width="20" height="21" viewBox="0 0 20 21" fill="none" xmlns="http://www.w3.org/2000/svg">
<path d="M17.5003 6.74984L14.167 8.4165M14.167 8.4165L13.7503 8.62484L10.0003 10.4998M14.167 8.4165V11.3332M14.167 8.4165L6.25033 4.24984M10.0003 10.4998L2.50033 6.74984M10.0003 10.4998V18.4165M12.982 3.31817L14.6487 4.19317C16.4412 5.134 17.3378 5.604 17.8362 6.44984C18.3337 7.29484 18.3337 8.34734 18.3337 10.4515V10.549C18.3337 12.6523 18.3337 13.7048 17.8362 14.5498C17.3378 15.3957 16.4412 15.8665 14.6487 16.8073L12.982 17.6815C11.5187 18.449 10.787 18.8332 10.0003 18.8332C9.21366 18.8332 8.48199 18.4498 7.01866 17.6815L5.35199 16.8065C3.55949 15.8657 2.66283 15.3957 2.16449 14.5498C1.66699 13.7048 1.66699 12.6523 1.66699 10.5498V10.4523C1.66699 8.34817 1.66699 7.29567 2.16449 6.45067C2.66283 5.60484 3.55949 5.134 5.35199 4.194L7.01866 3.319C8.48199 2.55067 9.21366 2.1665 10.0003 2.1665C10.787 2.1665 11.5187 2.54984 12.982 3.31817Z" stroke="#FFC527" stroke-width="1.5" stroke-linecap="round"/>
</svg>
