<svg width="20" height="21" viewBox="0 0 20 21" fill="none" xmlns="http://www.w3.org/2000/svg">
<path d="M10.0003 12.1667C11.8387 12.1667 13.3337 10.6717 13.3337 8.83333C13.3337 6.995 11.8387 5.5 10.0003 5.5C8.16199 5.5 6.66699 6.995 6.66699 8.83333C6.66699 10.6717 8.16199 12.1667 10.0003 12.1667ZM10.0003 7.16667C10.9195 7.16667 11.667 7.91417 11.667 8.83333C11.667 9.7525 10.9195 10.5 10.0003 10.5C9.08116 10.5 8.33366 9.7525 8.33366 8.83333C8.33366 7.91417 9.08116 7.16667 10.0003 7.16667Z" fill="#FFC527"/>
<path d="M9.51641 18.6784C9.65755 18.7789 9.82649 18.8329 9.99975 18.8329C10.173 18.8329 10.3419 18.7789 10.4831 18.6784C10.7364 18.4992 16.6906 14.2001 16.6664 8.83341C16.6664 5.15758 13.6756 2.16675 9.99975 2.16675C6.32391 2.16675 3.33308 5.15758 3.33308 8.82925C3.30891 14.2001 9.26308 18.4992 9.51641 18.6784ZM9.99975 3.83341C12.7572 3.83341 14.9997 6.07591 14.9997 8.83758C15.0172 12.5359 11.3431 15.8567 9.99975 16.9459C8.65725 15.8559 4.98225 12.5342 4.99975 8.83341C4.99975 6.07591 7.24225 3.83341 9.99975 3.83341Z" fill="#FFC527"/>
</svg>
