<svg width="24" height="25" viewBox="0 0 24 25" fill="none" xmlns="http://www.w3.org/2000/svg">
<path d="M24 16.625C24 18.9031 22.7351 20.75 20.25 20.75H3.75C1.26488 20.75 0 18.9031 0 16.625V8.375C0 6.09688 1.26488 4.25 3.75 4.25H20.25C22.7351 4.25 24 6.09688 24 8.375V16.625Z" fill="#E6E7E8"/>
<path d="M10.125 4.25H13.5V20.75H10.125V4.25Z" fill="#EC1C24"/>
<path d="M0 11H24V14.375H0V11Z" fill="#EC1C24"/>
<path fill-rule="evenodd" clip-rule="evenodd" d="M18.8737 9.47358C18.7603 9.4662 18.6469 9.45795 18.5336 9.44883C18.2652 9.42917 17.9954 9.43684 17.7285 9.4717C17.6599 9.47958 17.6377 9.47583 17.6531 9.39295C17.7232 9.02395 17.763 8.6512 17.7904 8.27695C17.7964 8.19445 17.7742 8.1757 17.6921 8.18208C17.322 8.21245 16.9526 8.24883 16.5874 8.31895C16.5026 8.33433 16.4955 8.31595 16.5049 8.23833C16.5446 7.8877 16.5454 7.53745 16.503 7.18833C16.4932 7.10658 16.515 7.10133 16.5844 7.11408C16.95 7.18083 17.3179 7.22208 17.6895 7.24833C17.7802 7.2547 17.7949 7.22508 17.7889 7.14483C17.7644 6.77743 17.72 6.41164 17.6557 6.04908C17.643 5.98008 17.6445 5.9557 17.7255 5.96395C18.083 6.00245 18.4397 6.00245 18.7957 5.96395C18.8595 5.95758 18.8726 5.96883 18.861 6.03633C18.7945 6.40549 18.7485 6.77807 18.7234 7.15233C18.7177 7.23483 18.741 7.25283 18.8209 7.24645C19.1743 7.22402 19.5264 7.18372 19.8757 7.1257C19.9136 7.11895 20.0179 7.04545 20.0085 7.15383C19.9766 7.52883 19.9687 7.90345 20.0141 8.2777C20.022 8.34183 19.9852 8.32795 19.9496 8.32158C19.5881 8.2522 19.2221 8.21395 18.8542 8.18658C18.7215 8.1757 18.7192 8.1757 18.7275 8.30583C18.7522 8.69433 18.7995 9.08095 18.8737 9.47358ZM18.8737 19.3811C18.7603 19.3737 18.6469 19.3655 18.5336 19.3563C18.2652 19.3367 17.9954 19.3443 17.7285 19.3792C17.6599 19.3871 17.6377 19.3833 17.6531 19.3005C17.7232 18.9315 17.763 18.5587 17.7904 18.1845C17.7964 18.102 17.7742 18.0832 17.6921 18.0896C17.322 18.12 16.9526 18.1563 16.5874 18.2265C16.5026 18.2418 16.4955 18.2235 16.5049 18.1458C16.5446 17.7952 16.5454 17.445 16.503 17.0958C16.4932 17.0141 16.515 17.0088 16.5844 17.0216C16.95 17.0883 17.3179 17.1296 17.6895 17.1558C17.7802 17.1622 17.7949 17.1326 17.7889 17.0523C17.7644 16.6849 17.72 16.3191 17.6557 15.9566C17.643 15.8876 17.6445 15.8632 17.7255 15.8715C18.083 15.91 18.4397 15.91 18.7957 15.8715C18.8595 15.8651 18.8726 15.8763 18.861 15.9438C18.7945 16.313 18.7485 16.6856 18.7234 17.0598C18.7177 17.1423 18.741 17.1603 18.8209 17.154C19.1743 17.1315 19.5264 17.0912 19.8757 17.0332C19.9136 17.0265 20.0179 16.953 20.0085 17.0613C19.9766 17.4363 19.9687 17.811 20.0141 18.1852C20.022 18.2493 19.9852 18.2355 19.9496 18.2291C19.5881 18.1597 19.2221 18.1215 18.8542 18.0941C18.7215 18.0832 18.7192 18.0832 18.7275 18.2133C18.7522 18.6018 18.7995 18.9885 18.8737 19.3811ZM5.81436 9.47358C5.70093 9.4662 5.58755 9.45795 5.47424 9.44883C5.20578 9.42917 4.93602 9.43684 4.66911 9.4717C4.60049 9.47958 4.57836 9.47583 4.59374 9.39295C4.66386 9.02395 4.70361 8.6512 4.73099 8.27695C4.73699 8.19445 4.71486 8.1757 4.63274 8.18208C4.26261 8.21245 3.89324 8.24883 3.52799 8.31895C3.44324 8.33433 3.43611 8.31595 3.44549 8.23833C3.48524 7.8877 3.48599 7.53745 3.44361 7.18833C3.43386 7.10658 3.45561 7.10133 3.52499 7.11408C3.89061 7.18083 4.25849 7.22208 4.63011 7.24833C4.72086 7.2547 4.73549 7.22508 4.72949 7.14483C4.70507 6.77743 4.66063 6.41164 4.59636 6.04908C4.58361 5.98008 4.58511 5.9557 4.66611 5.96395C5.02361 6.00245 5.38036 6.00245 5.73636 5.96395C5.80011 5.95758 5.81324 5.96883 5.80161 6.03633C5.7351 6.40549 5.68916 6.77807 5.66399 7.15233C5.65836 7.23483 5.68161 7.25283 5.76149 7.24645C6.11492 7.22402 6.467 7.18372 6.81636 7.1257C6.85424 7.11895 6.95849 7.04545 6.94911 7.15383C6.91724 7.52883 6.90936 7.90345 6.95474 8.2777C6.96261 8.34183 6.92586 8.32795 6.89024 8.32158C6.52874 8.2522 6.16274 8.21395 5.79486 8.18658C5.66211 8.1757 5.65986 8.1757 5.66811 8.30583C5.69286 8.69433 5.74011 9.08095 5.81436 9.47358ZM5.81436 19.3473C5.70093 19.34 5.58755 19.3317 5.47424 19.3226C5.20578 19.3029 4.93602 19.3106 4.66911 19.3455C4.60049 19.3533 4.57836 19.3496 4.59374 19.2667C4.66386 18.8977 4.70361 18.525 4.73099 18.1507C4.73699 18.0682 4.71486 18.0495 4.63274 18.0558C4.26261 18.0862 3.89324 18.1226 3.52799 18.1927C3.44324 18.2081 3.43611 18.1897 3.44549 18.1121C3.48524 17.7615 3.48599 17.4112 3.44361 17.0621C3.43386 16.9803 3.45561 16.9751 3.52499 16.9878C3.89061 17.0546 4.25849 17.0958 4.63011 17.1221C4.72086 17.1285 4.73549 17.0988 4.72949 17.0186C4.70507 16.6512 4.66063 16.2854 4.59636 15.9228C4.58361 15.8538 4.58511 15.8295 4.66611 15.8377C5.02361 15.8762 5.38036 15.8762 5.73636 15.8377C5.80011 15.8313 5.81324 15.8426 5.80161 15.9101C5.7351 16.2792 5.68916 16.6518 5.66399 17.0261C5.65836 17.1086 5.68161 17.1266 5.76149 17.1202C6.11492 17.0978 6.467 17.0575 6.81636 16.9995C6.85424 16.9927 6.95849 16.9192 6.94911 17.0276C6.91724 17.4026 6.90936 17.7772 6.95474 18.1515C6.96261 18.2156 6.92586 18.2017 6.89024 18.1953C6.52874 18.126 6.16274 18.0877 5.79486 18.0603C5.66211 18.0495 5.65986 18.0495 5.66811 18.1796C5.69286 18.5681 5.74011 18.9547 5.81436 19.3473Z" fill="#E7112D"/>
</svg>
