<svg width="20" height="20" viewBox="0 0 20 20" fill="none" xmlns="http://www.w3.org/2000/svg">
<path fill-rule="evenodd" clip-rule="evenodd" d="M13.5602 8.5599C13.5602 9.44395 13.209 10.2918 12.5839 10.9169C11.9588 11.542 11.1109 11.8932 10.2269 11.8932C9.34283 11.8932 8.49499 11.542 7.86987 10.9169C7.24474 10.2918 6.89355 9.44395 6.89355 8.5599C6.89355 7.67584 7.24474 6.82799 7.86987 6.20287C8.49499 5.57775 9.34283 5.22656 10.2269 5.22656C11.1109 5.22656 11.9588 5.57775 12.5839 6.20287C13.209 6.82799 13.5602 7.67584 13.5602 8.5599ZM11.8936 8.5599C11.8936 9.00192 11.718 9.42585 11.4054 9.73841C11.0928 10.051 10.6689 10.2266 10.2269 10.2266C9.78486 10.2266 9.36094 10.051 9.04838 9.73841C8.73582 9.42585 8.56022 9.00192 8.56022 8.5599C8.56022 8.11787 8.73582 7.69394 9.04838 7.38138C9.36094 7.06882 9.78486 6.89323 10.2269 6.89323C10.6689 6.89323 11.0928 7.06882 11.4054 7.38138C11.718 7.69394 11.8936 8.11787 11.8936 8.5599Z" fill="#FFC527"/>
<path fill-rule="evenodd" clip-rule="evenodd" d="M4.82834 13.765C3.75404 12.7421 3.00717 11.4237 2.6822 9.97635C2.35722 8.52902 2.46873 7.01783 3.00262 5.63387C3.53651 4.24991 4.4688 3.05536 5.6816 2.20125C6.8944 1.34715 8.33323 0.871869 9.81615 0.835506C11.2991 0.799144 12.7595 1.20334 14.0127 1.99697C15.2659 2.79061 16.2556 3.93804 16.8567 5.29416C17.4578 6.65029 17.6432 8.1542 17.3895 9.61572C17.1359 11.0772 16.4545 12.4307 15.4317 13.505L10.26 18.9367L4.82834 13.765ZM14.225 12.3558L10.2025 16.5808L5.9775 12.5583C5.14198 11.7628 4.56112 10.7373 4.30838 9.61164C4.05564 8.48597 4.14237 7.31063 4.5576 6.23424C4.97283 5.15786 5.69792 4.22877 6.64117 3.56447C7.58442 2.90017 8.70348 2.53048 9.85683 2.50216C11.0102 2.47385 12.146 2.78817 13.1208 3.40538C14.0955 4.02259 14.8653 4.91497 15.3328 5.96968C15.8004 7.02439 15.9447 8.19406 15.7475 9.33078C15.5503 10.4675 15.0205 11.5202 14.225 12.3558Z" fill="#FFC527"/>
</svg>
