<svg width="24" height="24" viewBox="0 0 24 24" fill="none" xmlns="http://www.w3.org/2000/svg">
<path d="M21.1666 11.1575C21.1666 6.0975 17.06 2 12 2C6.93996 2 2.83329 6.0975 2.83329 11.1575C2.83329 16.2267 6.93996 20.3333 12 20.3333C17.06 20.3333 21.1666 16.2267 21.1666 11.1575ZM15.6666 17.51V14.8058C16.8018 14.5185 17.8977 14.0937 18.93 13.5408C18.3543 15.2129 17.1959 16.6219 15.6666 17.51ZM19.2966 11.1667C18.1966 11.9275 16.9775 12.5233 15.6666 12.9175V9.41583C16.9775 9.81 18.1966 10.4058 19.2966 11.1667ZM10.1666 4.07167C10.7533 3.925 11.3675 3.83333 12 3.83333C12.6325 3.83333 13.2466 3.925 13.8333 4.07167V7.17C13.2283 7.09667 12.6233 7.04167 12 7.04167C11.3766 7.04167 10.7716 7.09667 10.1666 7.17V4.07167ZM8.33329 4.82333V7.5275C7.18746 7.82083 6.08746 8.2425 5.06996 8.7925C5.64343 7.11917 6.80241 5.70952 8.33329 4.82333ZM15.6666 7.5275V4.82333C17.1975 5.70952 18.3565 7.11917 18.93 8.7925C17.8977 8.23964 16.8018 7.81484 15.6666 7.5275ZM4.70329 11.1667C5.80329 10.4058 7.02246 9.81 8.33329 9.41583V12.9175C7.02246 12.5233 5.80329 11.9275 4.70329 11.1667ZM10.1666 13.3117V9.02167C10.7716 8.93917 11.3766 8.875 12 8.875C12.6233 8.875 13.2375 8.93917 13.8333 9.02167V13.3117C13.2375 13.3942 12.6233 13.4583 12 13.4583C11.3766 13.4583 10.7716 13.3942 10.1666 13.3117ZM5.06996 13.5408C6.08746 14.0908 7.18746 14.5125 8.33329 14.8058V17.51C6.80404 16.6219 5.64563 15.2129 5.06996 13.5408ZM10.1666 15.1633C10.7716 15.2367 11.3766 15.2917 12 15.2917C12.6233 15.2917 13.2283 15.2367 13.8333 15.1633V18.2617C13.2466 18.4083 12.6325 18.5 12 18.5C11.3675 18.5 10.7533 18.4083 10.1666 18.2617V15.1633Z" fill="#FFC527"/>
</svg>
