<svg width="20" height="21" viewBox="0 0 20 21" fill="none" xmlns="http://www.w3.org/2000/svg">
<path d="M7.50033 9.66667C8.38438 9.66667 9.23223 9.31548 9.85735 8.69036C10.4825 8.06523 10.8337 7.21739 10.8337 6.33333C10.8337 5.44928 10.4825 4.60143 9.85735 3.97631C9.23223 3.35119 8.38438 3 7.50033 3C6.61627 3 5.76842 3.35119 5.1433 3.97631C4.51818 4.60143 4.16699 5.44928 4.16699 6.33333C4.16699 7.21739 4.51818 8.06523 5.1433 8.69036C5.76842 9.31548 6.61627 9.66667 7.50033 9.66667Z" stroke="#FFC527" stroke-width="1.5" stroke-linecap="round" stroke-linejoin="round"/>
<path d="M1.66699 15.4998C1.66701 14.4048 1.97518 13.332 2.55627 12.404C3.13736 11.476 3.9679 10.7303 4.9529 10.2521C5.9379 9.77398 7.03758 9.5827 8.12618 9.70018C9.21479 9.81765 10.2483 10.2391 11.1087 10.9164M14.167 11.3331H15.8337M17.8037 14.4223L18.0503 16.0889C18.0854 16.3258 18.069 16.5675 18.0023 16.7975C17.9356 17.0275 17.8201 17.2404 17.6636 17.4217C17.5072 17.6031 17.3136 17.7486 17.0958 17.8483C16.8781 17.948 16.6415 17.9997 16.402 17.9998H13.5987C13.3592 17.9997 13.1225 17.948 12.9048 17.8483C12.6871 17.7486 12.4934 17.6031 12.337 17.4217C12.1806 17.2404 12.0651 17.0275 11.9983 16.7975C11.9316 16.5675 11.9152 16.3258 11.9503 16.0889L12.197 14.4223C12.2555 14.0269 12.4542 13.6658 12.7568 13.4047C13.0593 13.1435 13.4457 12.9998 13.8453 12.9998H16.1553C16.555 12.9998 16.9413 13.1435 17.2439 13.4047C17.5464 13.6658 17.7451 14.0269 17.8037 14.4223Z" stroke="#FFC527" stroke-width="1.5" stroke-linecap="round" stroke-linejoin="round"/>
</svg>
