<svg width="20" height="21" viewBox="0 0 20 21" fill="none" xmlns="http://www.w3.org/2000/svg">
<path d="M15.8333 12.1665H4.16667C3.24619 12.1665 2.5 12.9127 2.5 13.8332V16.3332C2.5 17.2536 3.24619 17.9998 4.16667 17.9998H15.8333C16.7538 17.9998 17.5 17.2536 17.5 16.3332V13.8332C17.5 12.9127 16.7538 12.1665 15.8333 12.1665Z" stroke="#FFC527" stroke-width="1.66667"/>
<path d="M8.33333 3.4165H4.16667C3.72464 3.4165 3.30072 3.5921 2.98816 3.90466C2.67559 4.21722 2.5 4.64114 2.5 5.08317V7.58317C2.5 8.0252 2.67559 8.44912 2.98816 8.76168C3.30072 9.07424 3.72464 9.24984 4.16667 9.24984H8.33333" stroke="#FFC527" stroke-width="1.66667" stroke-linecap="round"/>
<path d="M14.1663 9.66667C16.0073 9.66667 17.4997 8.17428 17.4997 6.33333C17.4997 4.49238 16.0073 3 14.1663 3C12.3254 3 10.833 4.49238 10.833 6.33333C10.833 8.17428 12.3254 9.66667 14.1663 9.66667Z" stroke="#FFC527" stroke-width="1.66667"/>
<path d="M14.167 7.5835C14.8573 7.5835 15.417 7.02385 15.417 6.3335C15.417 5.64314 14.8573 5.0835 14.167 5.0835C13.4766 5.0835 12.917 5.64314 12.917 6.3335C12.917 7.02385 13.4766 7.5835 14.167 7.5835Z" fill="#FFC527"/>
</svg>
