<svg width="28" height="28" viewBox="0 0 28 28" fill="none" xmlns="http://www.w3.org/2000/svg">
<path d="M19.8333 9.91663C20.7998 9.91663 21.5833 9.13312 21.5833 8.16663C21.5833 7.20013 20.7998 6.41663 19.8333 6.41663C18.8668 6.41663 18.0833 7.20013 18.0833 8.16663C18.0833 9.13312 18.8668 9.91663 19.8333 9.91663Z" fill="white"/>
<path d="M18.6667 3.5C21.8867 3.5 24.5 6.11333 24.5 9.33333V18.6667C24.5 21.8867 21.8867 24.5 18.6667 24.5H9.33333C6.11333 24.5 3.5 21.8867 3.5 18.6667V9.33333C3.5 6.11333 6.11333 3.5 9.33333 3.5H14H18.6667Z" stroke="white" stroke-width="2.33333" stroke-linecap="round" stroke-linejoin="round"/>
<path d="M13.9999 9.33337C16.5783 9.33337 18.6666 11.4217 18.6666 14C18.6666 16.5784 16.5783 18.6667 13.9999 18.6667C11.4216 18.6667 9.33325 16.5784 9.33325 14C9.33325 11.4217 11.4216 9.33337 13.9999 9.33337Z" stroke="white" stroke-width="2.33333" stroke-linecap="round" stroke-linejoin="round"/>
</svg>
