<svg width="26" height="26" viewBox="0 0 26 26" fill="none" xmlns="http://www.w3.org/2000/svg">
<path d="M11.6816 20.397C13.405 20.3986 15.0902 19.8896 16.5245 18.9342C17.9588 17.9789 19.0779 16.6199 19.7405 15.029C20.4027 13.4379 20.5774 11.686 20.2423 9.99542C19.9073 8.30488 19.0777 6.75194 17.8587 5.53362C16.6405 4.31482 15.0883 3.48452 13.3983 3.14765C11.7083 2.81078 9.9564 2.98246 8.36395 3.64101C6.7715 4.29955 5.41002 5.41539 4.45158 6.8475C3.49313 8.27961 2.98074 9.96371 2.97917 11.687C2.97917 13.9955 3.89567 16.2088 5.52717 17.8414C7.15918 19.4741 9.37199 20.3931 11.6805 20.397M17.862 17.8652L23.0208 23.0208" stroke="#FFC527" stroke-width="1.5" stroke-linecap="round" stroke-linejoin="round"/>
</svg>
