<svg width="20" height="21" viewBox="0 0 20 21" fill="none" xmlns="http://www.w3.org/2000/svg">
<g clip-path="url(#clip0_328_8450)">
<path d="M10.9602 1.0683C11.2471 0.900778 11.5734 0.8125 11.9056 0.8125C12.2378 0.8125 12.5641 0.900778 12.851 1.0683L12.8569 1.07163L18.6544 4.63497C18.9397 4.80244 19.1764 5.04155 19.341 5.32861C19.5056 5.61567 19.5923 5.94074 19.5927 6.27163V12.535C19.5927 13.21 19.2327 13.835 18.6485 14.175L18.6468 14.1758L8.67685 20.04L8.67352 20.0425C8.08518 20.3841 7.35852 20.3841 6.77018 20.0425L6.74852 20.03L1.32935 16.2783C1.05061 16.1099 0.820071 15.8723 0.660063 15.5886C0.500054 15.305 0.415993 14.9848 0.416016 14.6591V8.36497C0.416016 8.0383 0.499349 7.7233 0.652682 7.4483L0.655182 7.4433L0.666849 7.42163C0.831016 7.13663 1.06685 6.89913 1.35018 6.73247H1.35185L10.9602 1.0683ZM11.591 2.14747H11.5902L2.20685 7.67997L7.41352 11.2191C7.51083 11.2716 7.6199 11.2983 7.73043 11.2969C7.84096 11.2954 7.94929 11.2658 8.04518 11.2108L17.7402 5.5408L12.216 2.1458C12.1208 2.09132 12.0129 2.06288 11.9032 2.06331C11.7935 2.06375 11.6858 2.09306 11.591 2.1483V2.14747ZM7.09768 12.4416C6.98405 12.402 6.8744 12.3518 6.77018 12.2916L6.75102 12.28L1.66602 8.82413V14.66C1.66602 14.8891 1.78685 15.1 1.98185 15.2133L2.00268 15.225L7.09768 18.7516V12.4416ZM15.0002 8.5908L12.2919 10.1741V16.4641L15.0002 14.8708V8.5908ZM8.67518 12.2891L8.67352 12.2908C8.56983 12.3509 8.46074 12.4011 8.34768 12.4408V18.7841L11.0419 17.1991V10.9058L8.67518 12.2891ZM16.2502 7.85913V14.1358L18.0202 13.0941C18.118 13.0371 18.1992 12.9555 18.2557 12.8574C18.3123 12.7593 18.3423 12.6482 18.3427 12.535V6.6358L16.2502 7.85913Z" fill="#FFC527"/>
</g>
<defs>
<clipPath id="clip0_328_8450">
<rect width="20" height="20" fill="white" transform="translate(0 0.5)"/>
</clipPath>
</defs>
</svg>
