<svg width="26" height="32" viewBox="0 0 26 32" fill="none" xmlns="http://www.w3.org/2000/svg">
<path d="M6.51724 1L1.27586 5.39024L1 5.63415L4.86207 8.80488L5.96552 7.82927L15.8966 15.878L5.96552 23.9268L4.86207 23.1951L1 26.3659L6.51724 31L25 15.878L6.51724 1Z" fill="white"/>
<path d="M6.24138 8.80488L4.31034 10.2683L10.931 15.878L4.31034 21.4878L5.96552 22.9512L14.5172 15.878L6.24138 8.80488Z" fill="white"/>
<path d="M6.51724 1L1.27586 5.39024L1 5.63415L4.86207 8.80488L5.96552 7.82927L15.8966 15.878L5.96552 23.9268L4.86207 23.1951L1 26.3659L6.51724 31L25 15.878L6.51724 1Z" stroke="white" stroke-width="0.2"/>
<path d="M6.24138 8.80488L4.31034 10.2683L10.931 15.878L4.31034 21.4878L5.96552 22.9512L14.5172 15.878L6.24138 8.80488Z" stroke="white" stroke-width="0.2"/>
</svg>
